<svg width="254" height="85" viewBox="0 0 254 85" fill="none" xmlns="http://www.w3.org/2000/svg">
<path d="M113.304 50.9739C113.104 55.3262 111.881 58.6188 109.635 60.8516C107.389 63.0844 104.21 64.2041 100.097 64.2108C95.7782 64.2108 92.469 62.7911 90.1695 59.9518C87.8701 57.1125 86.7237 53.0634 86.7303 47.8046V41.3762C86.7303 36.1374 87.9167 32.0983 90.2895 29.259C92.6623 26.4197 95.9648 25 100.197 25C104.356 25 107.515 26.1631 109.675 28.4892C111.834 30.8153 113.061 34.1479 113.354 38.4868H105.626C105.553 35.8208 105.136 33.9646 104.376 32.9181C103.616 31.9184 102.227 31.3885 100.197 31.3885C99.3394 31.3116 98.4769 31.4724 97.7044 31.8533C96.932 32.2343 96.2794 32.8206 95.8182 33.548C94.9784 34.9977 94.5085 37.3771 94.4585 40.6963V47.9046C94.4585 51.6971 94.8818 54.2998 95.7282 55.7128C96.1928 56.432 96.8459 57.01 97.6162 57.3837C98.3866 57.7574 99.2448 57.9126 100.097 57.8323C102.097 57.8323 103.516 57.3424 104.286 56.3526C105.056 55.3629 105.486 53.5733 105.596 50.9939L113.304 50.9739Z" fill="#A70050"/>
<path d="M141.208 49.0342C141.265 51.7448 140.747 54.4368 139.688 56.9324C138.789 59.078 137.289 60.9181 135.369 62.2311C133.475 63.4889 131.244 64.1409 128.97 64.1007C126.707 64.1341 124.484 63.4976 122.582 62.2711C120.644 60.9644 119.126 59.1239 118.213 56.9724C117.132 54.4681 116.6 51.7613 116.653 49.0342V47.8545C116.593 45.1104 117.115 42.3847 118.183 39.8564C119.087 37.7079 120.594 35.8673 122.522 34.5576C124.433 33.2989 126.682 32.6504 128.97 32.6981C130.597 32.6536 132.212 32.9724 133.7 33.6314C135.187 34.2903 136.509 35.2728 137.568 36.5072C139.808 39.0466 141.024 42.4391 141.218 46.6848L141.208 49.0342ZM133.789 47.8045C133.916 45.5179 133.48 43.235 132.52 41.1561C132.206 40.4663 131.7 39.8815 131.062 39.4714C130.425 39.0613 129.683 38.8432 128.925 38.8432C128.168 38.8432 127.426 39.0613 126.788 39.4714C126.151 39.8815 125.645 40.4663 125.331 41.1561C124.402 43.2441 123.981 45.5224 124.102 47.8045V49.0042C123.971 51.3061 124.414 53.6043 125.391 55.6927C125.711 56.3739 126.217 56.951 126.85 57.3578C127.483 57.7646 128.218 57.9844 128.97 57.9921C129.717 57.9803 130.444 57.7533 131.065 57.3383C131.686 56.9233 132.173 56.338 132.47 55.6527C133.415 53.6143 133.857 51.3789 133.759 49.1342L133.789 47.8045Z" fill="#A70050"/>
<path d="M146.026 63.6908V25.5298H156.124C160.576 25.5298 164.126 26.9428 166.772 29.7688C169.421 32.6081 170.771 36.4772 170.821 41.4061V47.5946C170.821 52.6001 169.488 56.5358 166.822 59.4018C164.156 62.2678 160.536 63.6975 155.964 63.6908H146.026ZM153.735 31.9583V57.2923H156.044C158.613 57.2923 160.413 56.6125 161.463 55.2928C162.513 53.9731 163.062 51.6037 163.112 48.2944V41.616C163.112 38.0568 162.623 35.5674 161.623 34.1578C160.623 32.7481 158.933 32.0183 156.544 31.9483L153.735 31.9583Z" fill="#A70050"/>
<path d="M193.065 51.0038H183.068V57.5722H194.955V63.6908H175.699V33.1479H194.955V39.3365H183.108V44.8452H193.105L193.065 51.0038Z" fill="#A70050"/>
<path d="M217.26 55.8727H206.752L204.703 63.6908H196.555L208.482 25.5398H215.53L227.527 63.6908H219.299L217.26 55.8727ZM208.422 49.4542H215.55L211.951 35.8574L208.422 49.4542Z" fill="#A70050"/>
<path d="M240.524 53.1732H237.885V63.6908H230.437V33.1479H241.494C244.873 33.1479 247.493 33.9478 249.352 35.5374C250.298 36.3858 251.041 37.437 251.524 38.6124C252.007 39.7879 252.218 41.0573 252.141 42.3258C252.205 44.1557 251.835 45.9748 251.062 47.6345C250.258 49.1278 249.016 50.3387 247.503 51.1037L253.081 63.3709V63.6908H245.083L240.524 53.1732ZM237.885 47.0147H241.364C243.603 47.0147 244.723 45.7317 244.723 43.1656C244.723 40.6262 243.653 39.3565 241.524 39.3365H237.885V47.0147Z" fill="#A70050"/>
<path d="M25.2344 85L64.0544 50.6348L53.7337 0L29.4124 21.5267L45.765 49.8877L25.2344 85Z" fill="#A70050"/>
<path d="M24.1829 21.5267L20.2816 14.7477L0 49.8877L20.0879 84.6679L20.2816 85L20.5306 84.5296L40.5355 49.8877L24.1829 21.5267Z" fill="#3C467E"/>
</svg>
