<svg width="114" height="93" viewBox="0 0 114 93" fill="none" xmlns="http://www.w3.org/2000/svg">
<path d="M29.74 20.866V24.555C29.7406 24.6405 29.7243 24.7252 29.692 24.8043C29.6596 24.8834 29.6118 24.9553 29.5514 25.0158C29.4911 25.0762 29.4193 25.1241 29.3402 25.1566C29.2612 25.1891 29.1764 25.2055 29.091 25.205H15.559C15.4711 25.2093 15.3832 25.1946 15.3015 25.162C15.2197 25.1294 15.1459 25.0796 15.085 25.016C14.9686 24.8911 14.9054 24.7257 14.909 24.555V6.00601C14.9051 5.83524 14.9683 5.66975 15.085 5.54501C15.146 5.4815 15.2198 5.4317 15.3015 5.39894C15.3832 5.36618 15.471 5.35121 15.559 5.35501H19.628C19.7135 5.35461 19.7983 5.37119 19.8774 5.40378C19.9565 5.43636 20.0284 5.48432 20.0888 5.54486C20.1493 5.6054 20.1971 5.67734 20.2296 5.7565C20.2621 5.83566 20.2785 5.92046 20.278 6.00601V19.564C20.274 19.7348 20.3372 19.9003 20.454 20.025C20.5147 20.0888 20.5885 20.1387 20.6704 20.1713C20.7522 20.2039 20.84 20.2185 20.928 20.214H29.087C29.1725 20.2138 29.2573 20.2305 29.3364 20.2632C29.4154 20.2959 29.4872 20.3439 29.5476 20.4046C29.6079 20.4652 29.6556 20.5372 29.688 20.6164C29.7203 20.6956 29.7366 20.7805 29.736 20.866H29.74Z" fill="black"/>
<path d="M39.026 5.979C39.1058 5.80753 39.2323 5.66199 39.391 5.55901C39.5537 5.44434 39.7479 5.38285 39.947 5.383H43.747C43.9372 5.38599 44.1219 5.44745 44.276 5.55901C44.4349 5.66197 44.5617 5.80749 44.642 5.979L52.56 24.417C52.5955 24.5001 52.6103 24.5905 52.6032 24.6806C52.5961 24.7706 52.5672 24.8576 52.519 24.934C52.4572 25.0292 52.3698 25.1051 52.2669 25.1531C52.164 25.201 52.0496 25.219 51.937 25.205H47.299C47.1 25.2045 46.906 25.1431 46.743 25.029C46.5814 24.921 46.4472 24.7769 46.351 24.608L45.618 22.981C45.5218 22.8118 45.3868 22.6678 45.224 22.561C45.0705 22.4489 44.886 22.3874 44.696 22.385H38.971C38.7725 22.3846 38.5788 22.4461 38.417 22.561C38.2569 22.6632 38.1293 22.8089 38.049 22.981L37.291 24.608C37.2102 24.7794 37.0835 24.9252 36.925 25.029C36.7704 25.1404 36.5855 25.2018 36.395 25.205H31.732C31.6345 25.2034 31.5381 25.1847 31.447 25.15C31.3529 25.1182 31.2691 25.0619 31.204 24.987C31.1376 24.9105 31.0949 24.8163 31.081 24.716C31.0679 24.5845 31.0966 24.4523 31.163 24.338L39.026 5.979ZM40.626 17.779H43.041C43.116 17.7854 43.1914 17.7725 43.26 17.7415C43.3286 17.7105 43.3882 17.6625 43.433 17.602C43.4729 17.5386 43.4928 17.4647 43.4903 17.3899C43.4878 17.315 43.463 17.2426 43.419 17.182C43.239 16.731 43.019 16.201 42.769 15.596C42.519 14.991 42.281 14.426 42.064 13.896C41.991 13.734 41.91 13.652 41.821 13.652C41.732 13.652 41.648 13.734 41.575 13.896L40.22 17.178C40.1783 17.2429 40.1565 17.3186 40.1574 17.3957C40.1583 17.4729 40.1818 17.548 40.225 17.6119C40.2683 17.6758 40.3293 17.7256 40.4006 17.7551C40.4719 17.7847 40.5502 17.7926 40.626 17.778V17.779Z" fill="black"/>
<path d="M56.081 18.4C56.9918 18.9993 57.964 19.4998 58.981 19.893C59.8362 20.2332 60.7458 20.4161 61.666 20.433C62.2899 20.4683 62.9132 20.3527 63.483 20.096C63.6738 20.0043 63.834 19.8594 63.9445 19.6788C64.0551 19.4983 64.1111 19.2897 64.106 19.078C64.1095 18.9701 64.0866 18.863 64.0394 18.766C63.9922 18.6689 63.922 18.5848 63.835 18.521C63.6167 18.3677 63.3734 18.2537 63.116 18.184C62.7745 18.0843 62.4258 18.0114 62.073 17.966C61.673 17.912 61.266 17.84 60.852 17.75C60.452 17.678 59.9853 17.592 59.452 17.492C58.8954 17.387 58.347 17.2423 57.811 17.059C57.2375 16.8629 56.6802 16.6225 56.144 16.34C55.5937 16.0524 55.0941 15.6768 54.665 15.228C54.2215 14.7587 53.868 14.212 53.622 13.615C53.3453 12.9115 53.2117 12.1598 53.229 11.404C53.1875 10.3263 53.4406 9.25767 53.961 8.31302C54.4192 7.52982 55.0558 6.86582 55.819 6.37501C56.5864 5.89035 57.4366 5.55135 58.327 5.37501C59.2093 5.18885 60.1083 5.09303 61.01 5.08902C62.3992 5.06805 63.7812 5.29319 65.092 5.75401C66.3357 6.22198 67.5012 6.87573 68.549 7.69301C68.687 7.80933 68.7748 7.97451 68.794 8.15402C68.8131 8.32844 68.7644 8.50354 68.658 8.64302L66.542 11.652C66.4376 11.7946 66.2827 11.8919 66.109 11.924C66.0247 11.9431 65.9373 11.9433 65.8529 11.9246C65.7685 11.906 65.6893 11.8689 65.621 11.816C64.8201 11.2936 63.954 10.8788 63.045 10.582C62.3339 10.3511 61.5925 10.2271 60.845 10.214C60.645 10.214 60.4146 10.219 60.154 10.229C59.9019 10.2364 59.6516 10.273 59.408 10.338C59.1905 10.3905 58.9901 10.4979 58.826 10.65C58.7469 10.7277 58.6854 10.8215 58.6455 10.925C58.6057 11.0285 58.5884 11.1393 58.595 11.25C58.595 11.5027 58.7843 11.7287 59.163 11.928C59.5784 12.1415 60.0139 12.3137 60.463 12.442C60.926 12.5822 61.3968 12.6953 61.873 12.781C62.325 12.863 62.6143 12.9134 62.741 12.932C63.4646 13.0763 64.1794 13.2616 64.882 13.487C65.6619 13.7325 66.3988 14.0983 67.066 14.571C67.7602 15.0689 68.3421 15.707 68.774 16.444C69.2628 17.3251 69.5017 18.323 69.465 19.33C69.49 20.2965 69.2951 21.2559 68.895 22.136C68.5324 22.9023 67.9879 23.5683 67.309 24.076C66.5774 24.607 65.7488 24.9892 64.87 25.201C63.8359 25.4555 62.7738 25.5785 61.709 25.567C60.8274 25.5723 59.9472 25.4949 59.08 25.336C58.3028 25.1935 57.5403 24.9803 56.802 24.699C56.1188 24.4387 55.4607 24.1167 54.836 23.737C54.2535 23.3822 53.6962 22.9876 53.168 22.556C53.0971 22.5041 53.0386 22.4372 52.9964 22.3601C52.9542 22.2831 52.9295 22.1977 52.924 22.11C52.9037 21.9321 52.9524 21.7531 53.06 21.61L55.149 18.599C55.2536 18.4569 55.4084 18.36 55.582 18.328C55.7513 18.2849 55.9308 18.3108 56.081 18.4V18.4Z" fill="black"/>
<path d="M90.206 26.087V14.863C90.2051 14.8107 90.2146 14.7588 90.234 14.7102C90.2534 14.6617 90.2823 14.6175 90.319 14.5802C90.3556 14.543 90.3994 14.5134 90.4477 14.4933C90.4959 14.4732 90.5477 14.4629 90.6 14.463H95.08C96.629 14.4017 98.1415 14.9429 99.3 15.973C99.8875 16.5163 100.347 17.1834 100.645 17.926C101.258 19.5707 101.258 21.3813 100.645 23.026C100.349 23.7724 99.8894 24.4428 99.3 24.988C98.7527 25.4804 98.1135 25.8597 97.419 26.104C96.6669 26.3638 95.8756 26.4916 95.08 26.482H90.6C90.548 26.4831 90.4963 26.4734 90.4483 26.4534C90.4002 26.4335 90.3569 26.4037 90.321 26.366C90.2838 26.3298 90.2545 26.2864 90.2347 26.2384C90.2149 26.1904 90.2052 26.1389 90.206 26.087V26.087ZM93.85 23.463H95.08C95.401 23.4604 95.7206 23.4218 96.033 23.348C96.358 23.273 96.6613 23.1238 96.919 22.912C97.2039 22.6682 97.4261 22.3595 97.567 22.012C97.9057 21.0283 97.9057 19.9597 97.567 18.976C97.4262 18.6263 97.2008 18.3171 96.911 18.076C96.6518 17.8664 96.3486 17.7181 96.024 17.642C95.7149 17.567 95.3981 17.5281 95.08 17.526H93.85C93.7981 17.5254 93.7465 17.5354 93.6986 17.5553C93.6506 17.5753 93.6072 17.6048 93.571 17.642C93.5337 17.6782 93.5043 17.7216 93.4845 17.7696C93.4647 17.8176 93.455 17.8691 93.456 17.921V23.073C93.4551 23.1253 93.4646 23.1772 93.484 23.2258C93.5034 23.2744 93.5323 23.3185 93.569 23.3558C93.6056 23.3931 93.6494 23.4226 93.6977 23.4427C93.7459 23.4629 93.7977 23.4732 93.85 23.473V23.463Z" fill="black"/>
<path d="M105.798 17.881V18.572C105.797 18.624 105.807 18.6756 105.827 18.7236C105.847 18.7716 105.877 18.815 105.914 18.851C105.95 18.8883 105.993 18.9178 106.041 18.9374C106.09 18.957 106.141 18.9664 106.193 18.965H110.641C110.693 18.9649 110.744 18.975 110.792 18.9948C110.84 19.0145 110.883 19.0435 110.92 19.0801C110.956 19.1168 110.986 19.1602 111.005 19.2081C111.025 19.256 111.035 19.3072 111.035 19.359V21.624C111.036 21.6763 111.026 21.7282 111.007 21.7767C110.987 21.8252 110.958 21.8693 110.922 21.9065C110.885 21.9437 110.841 21.9733 110.793 21.9935C110.745 22.0136 110.693 22.024 110.641 22.024H106.193C106.141 22.0227 106.09 22.032 106.042 22.0515C105.994 22.0709 105.95 22.1 105.914 22.137C105.876 22.1734 105.847 22.2172 105.827 22.2655C105.807 22.3138 105.797 22.3657 105.798 22.418V23.041C105.797 23.0929 105.807 23.1443 105.827 23.1922C105.847 23.24 105.876 23.2832 105.914 23.319C105.95 23.3568 105.993 23.3866 106.041 23.4064C106.089 23.4263 106.141 23.4357 106.193 23.434H111.293C111.345 23.4333 111.397 23.4432 111.445 23.4632C111.493 23.4831 111.537 23.5127 111.573 23.55C111.611 23.586 111.64 23.6294 111.66 23.6774C111.68 23.7254 111.69 23.777 111.689 23.829V26.092C111.689 26.1981 111.647 26.2999 111.572 26.3749C111.497 26.4499 111.395 26.492 111.289 26.492H102.935C102.883 26.4931 102.832 26.4833 102.784 26.4633C102.736 26.4434 102.693 26.4136 102.657 26.376C102.62 26.3398 102.59 26.2963 102.57 26.2481C102.55 26.1999 102.541 26.1481 102.542 26.096V14.863C102.541 14.8108 102.551 14.759 102.57 14.7105C102.589 14.662 102.618 14.6178 102.655 14.5806C102.691 14.5434 102.735 14.5138 102.783 14.4936C102.831 14.4734 102.883 14.463 102.935 14.463H111.289C111.341 14.4626 111.393 14.4725 111.441 14.4923C111.489 14.512 111.532 14.5412 111.569 14.578C111.606 14.6143 111.636 14.6578 111.656 14.706C111.676 14.7542 111.686 14.8059 111.685 14.858V17.089C111.685 17.1413 111.675 17.193 111.654 17.2412C111.634 17.2894 111.605 17.3331 111.567 17.3698C111.53 17.4064 111.486 17.4353 111.438 17.4548C111.389 17.4742 111.337 17.4838 111.285 17.483H106.185C106.133 17.4829 106.082 17.493 106.034 17.5126C105.986 17.5323 105.943 17.5612 105.906 17.5977C105.869 17.6342 105.84 17.6776 105.82 17.7253C105.8 17.7731 105.79 17.8243 105.79 17.876L105.798 17.881Z" fill="black"/>
<path d="M3.34699 45.278C4.06502 45.7501 4.83136 46.1444 5.63299 46.454C6.30715 46.7228 7.02435 46.8674 7.74999 46.881C8.24184 46.9083 8.73302 46.8167 9.18199 46.614C9.33267 46.5425 9.45943 46.429 9.54692 46.287C9.63442 46.145 9.6789 45.9807 9.67499 45.814C9.6777 45.729 9.6594 45.6447 9.62172 45.5684C9.58405 45.4922 9.52815 45.4264 9.45899 45.377C9.28672 45.2563 9.09539 45.1653 8.89299 45.108C8.62374 45.0308 8.34892 44.9746 8.07099 44.94C7.75599 44.897 7.43599 44.84 7.10899 44.768C6.78199 44.696 6.42799 44.644 6.00899 44.568C5.57027 44.4864 5.13811 44.3727 4.71599 44.228C4.26366 44.0737 3.82428 43.8838 3.40199 43.66C2.9682 43.4339 2.57434 43.1383 2.23599 42.785C1.8858 42.4154 1.60709 41.9841 1.41399 41.513C1.19606 40.9587 1.09101 40.3664 1.10499 39.771C1.07167 38.9211 1.27082 38.0781 1.68099 37.333C2.04257 36.716 2.54404 36.1926 3.14499 35.805C3.74984 35.4224 4.42004 35.1546 5.12199 35.015C5.81784 34.8683 6.52684 34.7929 7.23799 34.79C8.33283 34.7736 9.42195 34.951 10.455 35.314C11.4353 35.6822 12.3538 36.1974 13.179 36.842C13.2885 36.9335 13.3581 37.064 13.373 37.206C13.3882 37.3431 13.3494 37.4808 13.265 37.59L11.598 39.963C11.5155 40.0757 11.3926 40.152 11.255 40.176C11.1887 40.1912 11.1198 40.1914 11.0534 40.1767C10.987 40.162 10.9247 40.1327 10.871 40.091C10.2394 39.6806 9.55742 39.3536 8.84199 39.118C8.28204 38.937 7.69837 38.84 7.10999 38.83C6.95199 38.83 6.77099 38.83 6.56399 38.841C6.36575 38.8472 6.16883 38.8757 5.97699 38.926C5.80521 38.9683 5.64674 39.0528 5.51599 39.172C5.45438 39.2333 5.40641 39.307 5.37522 39.3882C5.34404 39.4693 5.33033 39.5562 5.33499 39.643C5.33499 39.843 5.48598 40.021 5.78498 40.176C6.11304 40.3437 6.45624 40.48 6.80999 40.583C7.17538 40.6921 7.54664 40.7806 7.92199 40.848C8.27799 40.914 8.50499 40.954 8.60599 40.967C9.17614 41.0824 9.73963 41.2287 10.294 41.405C10.9084 41.5997 11.489 41.8885 12.015 42.261C12.5619 42.6523 13.0205 43.1541 13.361 43.734C13.7449 44.4259 13.9333 45.2092 13.906 46C13.9252 46.7621 13.7717 47.5187 13.457 48.213C13.1704 48.8159 12.7414 49.34 12.207 49.74C11.6299 50.1594 10.9758 50.4608 10.282 50.627C9.46792 50.8285 8.63158 50.926 7.79299 50.917C7.0975 50.9209 6.40316 50.86 5.71899 50.735C5.10528 50.6223 4.50288 50.455 3.91899 50.235C3.38048 50.03 2.86197 49.7759 2.36999 49.476C1.9105 49.1967 1.4711 48.8856 1.05499 48.545C0.999294 48.504 0.953183 48.4513 0.919856 48.3907C0.88653 48.3301 0.866785 48.263 0.861987 48.194C0.844897 48.0517 0.883609 47.9083 0.969989 47.794L2.61599 45.423C2.69796 45.3102 2.81994 45.2329 2.95699 45.207C3.02347 45.1925 3.09214 45.1914 3.15908 45.2035C3.22601 45.2157 3.28987 45.241 3.34699 45.278V45.278Z" fill="black"/>
<path d="M20 50.643H16.787C16.718 50.6464 16.6491 50.6347 16.585 50.6088C16.5209 50.5829 16.4633 50.5434 16.416 50.493C16.3239 50.3945 16.2744 50.2638 16.278 50.129V35.529C16.2746 35.3946 16.3242 35.2642 16.416 35.166C16.4635 35.1161 16.5213 35.077 16.5853 35.0515C16.6493 35.0259 16.7181 35.0145 16.787 35.018H20C20.067 35.0164 20.1336 35.0287 20.1955 35.0542C20.2575 35.0797 20.3135 35.1178 20.36 35.166C20.4083 35.2131 20.4464 35.2696 20.4721 35.3321C20.4977 35.3945 20.5103 35.4615 20.509 35.529V50.129C20.5104 50.1966 20.4979 50.2638 20.4723 50.3265C20.4466 50.3891 20.4084 50.4458 20.36 50.493C20.3137 50.5417 20.2578 50.5802 20.1958 50.606C20.1338 50.6319 20.0671 50.6445 20 50.643V50.643Z" fill="black"/>
<path d="M25.147 45.278C25.8655 45.7499 26.6321 46.1442 27.434 46.454C28.1078 46.7227 28.8247 46.8674 29.55 46.881C30.0435 46.9089 30.5365 46.8173 30.987 46.614C31.1373 46.5423 31.2635 46.4286 31.3505 46.2866C31.4375 46.1446 31.4814 45.9804 31.477 45.814C31.48 45.7293 31.4622 45.6451 31.4251 45.5689C31.3879 45.4927 31.3326 45.4268 31.264 45.377C31.0916 45.2564 30.9003 45.1655 30.698 45.108C30.4281 45.0307 30.1526 44.9745 29.874 44.94C29.561 44.897 29.241 44.84 28.912 44.768C28.599 44.711 28.232 44.644 27.812 44.568C27.3736 44.4862 26.9418 44.3726 26.52 44.228C26.0676 44.0739 25.6282 43.8839 25.206 43.66C24.7724 43.4341 24.3788 43.1385 24.041 42.785C23.6905 42.4154 23.4115 41.9841 23.218 41.513C22.9997 40.9587 22.8943 40.3665 22.908 39.771C22.8754 38.921 23.0749 38.0782 23.485 37.333C23.8466 36.716 24.348 36.1926 24.949 35.805C25.5537 35.4229 26.2235 35.1551 26.925 35.015C27.6212 34.8683 28.3305 34.7929 29.042 34.79C30.1368 34.7736 31.2259 34.951 32.259 35.314C33.2398 35.6817 34.1587 36.197 34.984 36.842C35.0382 36.8871 35.0829 36.9425 35.1157 37.005C35.1485 37.0674 35.1686 37.1357 35.175 37.206C35.1931 37.3421 35.1572 37.4799 35.075 37.59L33.407 39.963C33.3246 40.0753 33.2021 40.1516 33.065 40.176C32.9985 40.1912 32.9295 40.1914 32.8629 40.1767C32.7964 40.162 32.7339 40.1327 32.68 40.091C32.0482 39.6804 31.3658 39.3533 30.65 39.118C30.0901 38.9368 29.5064 38.8398 28.918 38.83C28.763 38.83 28.58 38.83 28.374 38.841C28.1754 38.847 27.9782 38.8755 27.786 38.926C27.6146 38.9678 27.4567 39.0524 27.327 39.172C27.2648 39.233 27.2164 39.3066 27.1851 39.3878C27.1537 39.469 27.14 39.556 27.145 39.643C27.145 39.843 27.295 40.021 27.594 40.176C27.9223 40.3438 28.2659 40.4801 28.62 40.583C28.985 40.6923 29.3559 40.7808 29.731 40.848C30.087 40.9147 30.3147 40.9543 30.414 40.967C30.9846 41.0819 31.5484 41.2282 32.103 41.405C32.7173 41.5999 33.2979 41.8886 33.824 42.261C34.3707 42.6528 34.8295 43.1545 35.171 43.734C35.551 44.427 35.7359 45.2102 35.706 46C35.7248 46.762 35.5713 47.5185 35.257 48.213C34.9711 48.8166 34.5415 49.3409 34.006 49.74C33.4296 50.1594 32.7761 50.4608 32.083 50.627C31.2683 50.8286 30.4312 50.926 29.592 50.917C28.8972 50.9209 28.2035 50.8599 27.52 50.735C26.9063 50.6222 26.3039 50.4549 25.72 50.235C25.1817 50.0296 24.6632 49.7755 24.171 49.476C23.7121 49.1962 23.2731 48.8851 22.857 48.545C22.8011 48.5043 22.7549 48.4518 22.7219 48.391C22.6888 48.3303 22.6697 48.263 22.666 48.194C22.6472 48.0519 22.6853 47.9081 22.772 47.794L24.417 45.423C24.4998 45.3105 24.6219 45.2334 24.759 45.207C24.8252 45.1927 24.8935 45.1917 24.9601 45.2039C25.0266 45.216 25.0902 45.2412 25.147 45.278Z" fill="black"/>
<path d="M47.717 38.929H44.725C44.6573 38.9276 44.5901 38.9403 44.5276 38.9663C44.4651 38.9923 44.4087 39.031 44.362 39.08C44.3133 39.127 44.2748 39.1834 44.2488 39.2458C44.2228 39.3083 44.21 39.3754 44.211 39.443V50.129C44.2137 50.2638 44.1638 50.3943 44.072 50.493C44.0245 50.5436 43.9665 50.5833 43.9021 50.6092C43.8376 50.6351 43.7683 50.6467 43.699 50.643H40.487C40.4196 50.6431 40.3528 50.6299 40.2906 50.6041C40.2283 50.5783 40.1718 50.5404 40.1243 50.4926C40.0768 50.4448 40.0392 50.388 40.0137 50.3256C39.9883 50.2632 39.9754 50.1964 39.976 50.129V39.443C39.9788 39.3083 39.9285 39.1779 39.836 39.08C39.7883 39.0293 39.7301 38.9895 39.6656 38.9634C39.601 38.9373 39.5315 38.9256 39.462 38.929H36.432C36.2958 38.929 36.1652 38.875 36.0689 38.7788C35.9725 38.6826 35.9182 38.5522 35.918 38.416V35.516C35.9176 35.4484 35.9306 35.3815 35.9563 35.319C35.982 35.2565 36.0199 35.1997 36.0677 35.152C36.1155 35.1043 36.1723 35.0665 36.2349 35.041C36.2974 35.0154 36.3644 35.0025 36.432 35.003H47.717C47.7864 34.9999 47.8557 35.0114 47.9203 35.0369C47.9849 35.0624 48.0434 35.1013 48.092 35.151C48.1833 35.2503 48.2328 35.3811 48.23 35.516V38.416C48.2328 38.5503 48.1833 38.6805 48.092 38.779C48.0437 38.8292 47.9853 38.8685 47.9206 38.8944C47.856 38.9202 47.7865 38.932 47.717 38.929V38.929Z" fill="black"/>
<path d="M54.087 39.443V40.343C54.0866 40.4105 54.0996 40.4774 54.1252 40.5398C54.1509 40.6022 54.1886 40.6589 54.2364 40.7066C54.2841 40.7544 54.3408 40.7921 54.4032 40.8178C54.4656 40.8434 54.5325 40.8564 54.6 40.856H60.387C60.4545 40.8555 60.5215 40.8684 60.5839 40.894C60.6464 40.9196 60.7032 40.9573 60.7509 41.0051C60.7987 41.0528 60.8364 41.1096 60.862 41.1721C60.8876 41.2345 60.9005 41.3015 60.9 41.369V44.32C60.9007 44.3875 60.8878 44.4545 60.8623 44.517C60.8367 44.5794 60.799 44.6362 60.7512 44.6839C60.7034 44.7316 60.6466 44.7692 60.584 44.7947C60.5215 44.8201 60.4545 44.8328 60.387 44.832H54.595C54.5273 44.8311 54.4602 44.8439 54.3976 44.8697C54.335 44.8954 54.2784 44.9337 54.231 44.982C54.1825 45.029 54.1442 45.0855 54.1186 45.1479C54.0929 45.2104 54.0805 45.2775 54.082 45.345V46.158C54.0812 46.2255 54.0939 46.2925 54.1194 46.355C54.145 46.4175 54.1827 46.4742 54.2306 46.5219C54.2784 46.5695 54.3353 46.6071 54.3979 46.6323C54.4605 46.6576 54.5275 46.6701 54.595 46.669H61.242C61.3096 46.6687 61.3765 46.6819 61.4389 46.7077C61.5014 46.7335 61.5581 46.7715 61.6057 46.8194C61.6533 46.8673 61.691 46.9242 61.7164 46.9868C61.7419 47.0494 61.7547 47.1164 61.754 47.184V50.132C61.7547 50.1995 61.7419 50.2665 61.7164 50.329C61.6909 50.3916 61.6533 50.4484 61.6056 50.4962C61.558 50.5441 61.5013 50.5819 61.4389 50.6077C61.3764 50.6334 61.3095 50.6464 61.242 50.646H50.367C50.2994 50.6464 50.2325 50.6334 50.17 50.6077C50.1075 50.582 50.0507 50.5441 50.003 50.4963C49.9553 50.4485 49.9175 50.3916 49.8919 50.3291C49.8664 50.2666 49.8535 50.1996 49.854 50.132V35.511C49.8528 35.4432 49.8654 35.3759 49.891 35.3132C49.9166 35.2505 49.9547 35.1936 50.003 35.146C50.0505 35.098 50.1073 35.0602 50.1698 35.0347C50.2324 35.0093 50.2995 34.9968 50.367 34.998H61.246C61.3135 34.9968 61.3806 35.0093 61.4431 35.0347C61.5057 35.0602 61.5625 35.098 61.61 35.146C61.6584 35.1934 61.6965 35.2503 61.7219 35.3131C61.7474 35.3759 61.7597 35.4433 61.758 35.511V38.411C61.7596 38.4784 61.7473 38.5455 61.7219 38.6079C61.6964 38.6704 61.6583 38.7269 61.61 38.774C61.5626 38.8223 61.5059 38.8606 61.4434 38.8863C61.3808 38.9121 61.3137 38.9249 61.246 38.924H54.599C54.5315 38.9239 54.4647 38.9371 54.4023 38.9629C54.3399 38.9887 54.2833 39.0265 54.2356 39.0743C54.1879 39.1221 54.1502 39.1788 54.1245 39.2412C54.0988 39.3036 54.0857 39.3705 54.086 39.438L54.087 39.443Z" fill="black"/>
<path d="M81.422 35.531V50.131C81.4236 50.1986 81.4113 50.2658 81.3858 50.3284C81.3604 50.391 81.3223 50.4477 81.274 50.495C81.2274 50.5436 81.1713 50.5819 81.1092 50.6077C81.047 50.6336 80.9802 50.6463 80.913 50.645H77.702C77.6347 50.6466 77.5678 50.6341 77.5056 50.6083C77.4434 50.5824 77.3873 50.5438 77.341 50.495C77.2927 50.4477 77.2544 50.391 77.2287 50.3284C77.2029 50.2658 77.19 50.1987 77.191 50.131V43.251C77.191 43.107 77.127 43.028 76.999 43.014C76.9368 43.0069 76.8739 43.0171 76.8171 43.0433C76.7603 43.0696 76.7118 43.111 76.677 43.163L73.077 48.955C73.0415 49.0124 72.991 49.0589 72.9308 49.0894C72.8706 49.12 72.8032 49.1333 72.736 49.128C72.6654 49.1315 72.5951 49.1176 72.5313 49.0874C72.4674 49.0572 72.412 49.0118 72.37 48.955L68.77 43.163C68.7405 43.1112 68.6962 43.0693 68.6427 43.0427C68.5893 43.0162 68.5291 43.0062 68.47 43.014C68.341 43.028 68.277 43.107 68.277 43.251V50.131C68.2784 50.1987 68.2659 50.2659 68.2403 50.3285C68.2146 50.3911 68.1764 50.4478 68.128 50.495C68.0814 50.5436 68.0253 50.5819 67.9632 50.6077C67.901 50.6336 67.8342 50.6463 67.767 50.645H64.557C64.4897 50.6466 64.4228 50.634 64.3606 50.6082C64.2985 50.5823 64.2424 50.5438 64.196 50.495C64.1475 50.4478 64.1093 50.3911 64.0837 50.3285C64.0581 50.2659 64.0456 50.1987 64.047 50.131V35.531C64.0457 35.4636 64.0583 35.3965 64.0839 35.3341C64.1095 35.2717 64.1477 35.2151 64.196 35.168C64.2427 35.1198 64.2989 35.0818 64.361 35.0563C64.4231 35.0308 64.4899 35.0185 64.557 35.02H67.533C67.6905 35.0239 67.8445 35.0672 67.981 35.146C68.1181 35.2154 68.2351 35.3186 68.321 35.446L72.435 41.474C72.4672 41.525 72.5114 41.5672 72.5637 41.5972C72.6159 41.6272 72.6748 41.644 72.735 41.646C72.7925 41.6449 72.8486 41.6283 72.8975 41.5981C72.9464 41.5678 72.9863 41.525 73.013 41.474L77.128 35.446C77.2253 35.3212 77.3485 35.2189 77.489 35.146C77.6245 35.0676 77.7775 35.0243 77.934 35.02H80.913C80.9801 35.0195 81.0467 35.0324 81.1089 35.0579C81.171 35.0834 81.2274 35.121 81.2748 35.1686C81.3222 35.2162 81.3596 35.2728 81.3849 35.335C81.4102 35.3972 81.4228 35.4639 81.422 35.531V35.531Z" fill="black"/>
<path d="M89.16 35.49C89.2234 35.3545 89.3231 35.2393 89.448 35.157C89.5767 35.0671 89.73 35.0192 89.887 35.02H92.88C93.0295 35.0214 93.1749 35.0692 93.296 35.157C93.4212 35.2393 93.5212 35.3545 93.585 35.49L99.825 50.024C99.8521 50.0883 99.8635 50.1582 99.8581 50.2278C99.8527 50.2974 99.8307 50.3646 99.794 50.424C99.7454 50.4993 99.6766 50.5595 99.5954 50.5975C99.5142 50.6355 99.424 50.6499 99.335 50.639H95.678C95.5215 50.6386 95.3689 50.59 95.241 50.5C95.113 50.4149 95.0065 50.3013 94.93 50.168L94.354 48.888C94.2782 48.7542 94.172 48.6402 94.044 48.555C93.9226 48.4669 93.7769 48.4187 93.627 48.417H89.117C88.9601 48.4161 88.807 48.4643 88.679 48.555C88.5529 48.6359 88.4529 48.7516 88.391 48.888L87.791 50.168C87.7283 50.304 87.628 50.4192 87.502 50.5C87.3807 50.5877 87.2356 50.6362 87.086 50.639H83.409C83.3324 50.6372 83.2568 50.6226 83.185 50.596C83.1111 50.5699 83.045 50.5255 82.993 50.467C82.9394 50.4066 82.9046 50.3319 82.893 50.252C82.8806 50.1477 82.9031 50.0422 82.957 49.952L89.16 35.49ZM90.421 44.79H92.321C92.3803 44.7953 92.4401 44.7852 92.4944 44.7607C92.5487 44.7362 92.5957 44.698 92.631 44.65C92.6627 44.6005 92.6787 44.5427 92.677 44.4839C92.6752 44.4252 92.6557 44.3684 92.621 44.321C92.478 43.965 92.307 43.547 92.108 43.071C91.909 42.595 91.723 42.148 91.552 41.733C91.495 41.606 91.43 41.542 91.36 41.542C91.29 41.542 91.224 41.606 91.167 41.733L90.099 44.321C90.0671 44.3721 90.0507 44.4313 90.0519 44.4915C90.0531 44.5517 90.0718 44.6103 90.1058 44.66C90.1397 44.7098 90.1874 44.7485 90.243 44.7716C90.2987 44.7947 90.3598 44.8011 90.419 44.79H90.421Z" fill="black"/>
<path d="M102.603 45.278C103.322 45.7496 104.088 46.1438 104.89 46.454C105.564 46.7229 106.281 46.8675 107.007 46.881C107.499 46.9082 107.99 46.8166 108.439 46.614C108.589 46.5425 108.716 46.4288 108.803 46.2868C108.89 46.1448 108.934 45.9806 108.93 45.814C108.933 45.7292 108.915 45.6449 108.878 45.5686C108.841 45.4924 108.785 45.4266 108.716 45.377C108.543 45.2561 108.352 45.1651 108.149 45.108C107.88 45.0308 107.605 44.9747 107.327 44.94C107.013 44.897 106.692 44.84 106.365 44.768C106.038 44.696 105.684 44.644 105.265 44.568C104.827 44.4864 104.395 44.3727 103.973 44.228C103.52 44.0739 103.081 43.884 102.658 43.66C102.225 43.4336 101.832 43.138 101.494 42.785C101.143 42.4153 100.864 41.9841 100.669 41.513C100.452 40.9586 100.347 40.3664 100.36 39.771C100.327 38.921 100.527 38.0782 100.937 37.333C101.299 36.716 101.801 36.1926 102.402 35.805C103.007 35.4226 103.677 35.1548 104.379 35.015C105.075 34.8682 105.783 34.7928 106.494 34.79C107.589 34.7735 108.677 34.9509 109.71 35.314C110.691 35.6816 111.611 36.1969 112.437 36.842C112.546 36.9337 112.615 37.0643 112.629 37.206C112.645 37.3432 112.606 37.481 112.521 37.59L110.855 39.963C110.772 40.0751 110.65 40.1513 110.513 40.176C110.446 40.1913 110.377 40.1917 110.31 40.177C110.244 40.1623 110.181 40.1329 110.127 40.091C109.495 39.6806 108.813 39.3535 108.097 39.118C107.537 38.9369 106.954 38.8399 106.366 38.83C106.209 38.83 106.027 38.83 105.821 38.841C105.623 38.8472 105.426 38.8757 105.234 38.926C105.062 38.9676 104.904 39.0523 104.774 39.172C104.712 39.2332 104.664 39.3068 104.633 39.388C104.602 39.4692 104.588 39.5562 104.593 39.643C104.593 39.843 104.742 40.021 105.041 40.176C105.369 40.3439 105.713 40.4801 106.067 40.583C106.432 40.6923 106.803 40.7808 107.178 40.848C107.535 40.914 107.762 40.954 107.863 40.967C108.433 41.0825 108.997 41.2287 109.551 41.405C110.165 41.5993 110.746 41.8881 111.271 42.261C111.818 42.6522 112.277 43.154 112.618 43.734C113.004 44.4291 113.192 45.2165 113.163 46.011C113.183 46.773 113.029 47.5296 112.715 48.224C112.429 48.8273 111.999 49.3515 111.464 49.751C110.888 50.1702 110.234 50.4717 109.541 50.638C108.726 50.8396 107.889 50.9371 107.049 50.928C106.354 50.9318 105.66 50.8709 104.976 50.746C104.362 50.6332 103.76 50.4659 103.176 50.246C102.638 50.0408 102.12 49.7867 101.628 49.487C101.168 49.2082 100.729 48.8971 100.313 48.556C100.257 48.5153 100.211 48.4628 100.177 48.4021C100.144 48.3414 100.124 48.2741 100.12 48.205C100.103 48.0629 100.141 47.9195 100.227 47.805L101.874 45.434C101.956 45.321 102.078 45.2437 102.215 45.218C102.347 45.1858 102.487 45.2073 102.603 45.278V45.278Z" fill="black"/>
<path d="M1.806 0.710022H8.387V4.08502H5.487V25.785H8.387V29.161H1.806V0.710022Z" fill="#3BDF85"/>
<path d="M82.471 0.710022V29.166H75.887V25.79H78.787V4.09001H75.887V0.710022H82.471Z" fill="#3BDF85"/>
<path d="M113.02 59.749C106.32 58.3567 99.5231 57.4841 92.689 57.139C85.6292 56.8078 78.5601 57.554 71.725 59.352C70.5394 59.7635 69.377 60.2392 68.243 60.777C67.1767 61.3434 66.0301 61.7437 64.843 61.964C63.7627 61.9092 62.6963 61.6959 61.678 61.331C60.382 61.063 59.0588 60.9489 57.736 60.991H57.487C56.3559 60.9934 55.2278 61.1069 54.119 61.33C53.1002 61.6942 52.0336 61.9075 50.953 61.963C49.7664 61.7398 48.6201 61.339 47.553 60.774C46.42 60.2361 45.2583 59.7611 44.073 59.351C37.2381 57.5535 30.1697 56.806 23.11 57.134C16.2755 57.4804 9.4779 58.3544 2.778 59.748C2.72126 60.832 2.77487 61.9189 2.938 62.992C3.028 64.092 2.852 65.54 3.254 66.392C3.656 67.244 5.354 67.731 5.944 68.372C7.12 69.659 7.673 72.022 8.315 73.753C9.994 78.271 11.371 82.503 14.328 85.618C18.157 89.649 23.912 91.981 31.495 92.342C39.002 92.698 45.188 90.264 48.895 85.935C52.602 81.606 54.249 75.567 54.035 67.344C54.951 67.215 56.662 67.011 57.59 66.986C58.9862 67.003 60.3793 67.1226 61.758 67.344C61.545 75.567 63.198 81.618 66.901 85.935C70.604 90.252 76.801 92.7 84.301 92.345C91.885 91.981 97.639 89.653 101.467 85.619C104.425 82.503 105.803 78.272 107.479 73.753C108.123 72.024 108.679 69.661 109.852 68.374C110.442 67.731 112.141 67.247 112.544 66.397C112.947 65.547 112.77 64.09 112.858 62.997C113.022 61.9227 113.076 60.8344 113.02 59.749ZM49.745 74.929C49.587 77.0065 48.9938 79.0276 48.004 80.861C47.2543 82.5524 46.0837 84.0235 44.604 85.134C43.9412 85.679 43.2257 86.1563 42.468 86.559C36.378 90.779 24.968 89.132 19.608 85.53C18.9326 85.026 18.2974 84.4704 17.708 83.868C14.259 79.8863 12.4747 74.7299 12.725 69.468C12.7919 67.4587 13.6443 65.5557 15.099 64.168C18.193 61.698 25.199 61.257 30.761 61.557C40.248 62.067 50.425 64.541 49.745 74.929V74.929ZM98.306 83.877C97.7162 84.4786 97.081 85.0339 96.406 85.538C91.043 89.138 79.635 90.786 73.544 86.567C72.7876 86.163 72.0722 85.6865 71.408 85.144C69.9288 84.0334 68.7584 82.5628 68.008 80.872C67.0185 79.0378 66.4254 77.0161 66.267 74.938C65.588 64.552 75.767 62.075 85.253 61.568C90.818 61.268 97.822 61.713 100.917 64.18C102.371 65.5685 103.222 67.471 103.29 69.48C103.541 74.7413 101.756 79.8971 98.306 83.877Z" fill="#7A00E4"/>
</svg>
